<svg fill="#000000" height="800px" width="800px" version="1.1" id="Layer_1"
	xmlns="http://www.w3.org/2000/svg"
	xmlns:xlink="http://www.w3.org/1999/xlink" viewBox="0 0 512 512" xml:space="preserve">
	<g>
		<g>
			<path d="M487.024,305.951c0-21.937-12.644-40.968-31.018-50.217c4.009-16.175,6.043-32.813,6.043-49.685
			C462.049,92.433,369.615,0,256,0S49.951,92.433,49.951,206.049c0,16.872,2.034,33.51,6.043,49.685
			c-18.375,9.25-31.018,28.28-31.018,50.217c0,29.265,22.488,53.377,51.091,55.965l-16.388,50.421
			c-8.138,23.251-5.442,46.199,7.6,64.637C83.026,499.232,111.986,512,146.732,512h218.537c34.746,0,63.705-12.766,79.452-35.026
			c13.042-18.438,15.74-41.382,7.601-64.633l-16.388-50.424C464.536,359.328,487.024,335.216,487.024,305.951z M256,37.463
			c92.958,0,168.585,75.627,168.585,168.585c0,15.362-2.054,30.475-6.1,45.087c-9.087,2.049-17.528,6.325-24.549,12.437
			c-34.642-8.716-84.953-13.816-137.937-13.816s-103.294,5.1-137.937,13.816c-7.021-6.112-15.461-10.387-24.549-12.437
			c-4.046-14.612-6.1-29.725-6.1-45.087C87.415,113.091,163.042,37.463,256,37.463z M430.829,324.683h-46.39l32.321,99.449
			l0.152,0.446c2.883,8.166,4.742,20.132-2.777,30.761c-8.504,12.021-26.773,19.198-48.867,19.198H146.732
			c-22.095,0-40.363-7.177-48.867-19.199c-7.519-10.628-5.661-22.594-2.777-30.76l32.472-99.895H81.171
			c-10.329,0-18.732-8.403-18.732-18.732s8.403-18.732,18.732-18.732c6.153,0,11.922,3.036,15.431,8.121l7.821,11.331l13.15-4.083
			c30.995-9.623,82.743-15.369,138.427-15.369s107.433,5.746,138.427,15.37l13.15,4.084l7.821-11.331
			c3.509-5.085,9.278-8.121,15.431-8.121c10.329,0,18.732,8.403,18.732,18.732S441.158,324.683,430.829,324.683z"/>
		</g>
	</g>
	<g>
		<g>
			<path d="M187.317,162.341c-13.767,0-24.971,11.202-24.976,24.976c0,13.772,11.203,24.976,24.973,24.976h0.003
			c13.772,0,24.976-11.204,24.976-24.976S201.089,162.341,187.317,162.341z"/>
		</g>
	</g>
	<g>
		<g>
			<path d="M324.683,162.341c-13.767,0-24.971,11.202-24.976,24.976c0,13.772,11.203,24.976,24.973,24.976h0.003
			c13.772,0,24.976-11.204,24.976-24.976S338.454,162.341,324.683,162.341z"/>
		</g>
	</g>
	<g>
		<g>
			<path d="M221.028,319.675l-29.953,22.503c5.712,7.603,8.73,16.667,8.73,26.214h37.463
			C237.268,350.665,231.652,333.819,221.028,319.675z"/>
		</g>
	</g>
	<g>
		<g>
			<path d="M290.972,319.675c-10.625,14.144-16.24,30.99-16.24,48.717h37.463c0-9.548,3.018-18.612,8.73-26.214L290.972,319.675z"/>
		</g>
	</g>
</svg>